<svg width="250" height="250" viewBox="0 0 250 250" fill="none" xmlns="http://www.w3.org/2000/svg">
<path d="M27.8775 20L37.3878 10.4898V17.7551H40V6H28.2449V8.61225H35.5102L26 18.1224L27.8775 20Z" fill="#323C46"/>
<path d="M46.6093 18L54.7609 9.8484V16.0758H57V6H46.9242V8.23907H53.1516L45 16.3907L46.6093 18Z" fill="#00B4C9"/>
<path d="M63.0729 14L68.5073 8.5656V12.7172H70V6H63.2828V7.49271H67.4344L62 12.9271L63.0729 14Z" fill="#323C46"/>
<path d="M33.9927 27L34.7025 27.7098L24.803 37.6093L24.0932 36.8995L33.9927 27ZM24.8035 27.0556L34.7029 36.9551L33.8995 37.7586L24 27.859L24.8035 27.0556Z" fill="white"/>
<path d="M70 33.4585V34.4623H56V33.4585H70ZM63.4629 27V41H62.3267V27H63.4629Z" fill="#00B4C9"/>
<path d="M19 33.4585V34.4623H5V33.4585H19ZM12.4629 27V41H11.3267V27H12.4629Z" fill="#323C46"/>
<path d="M5 56L11 66H23L29 56L23 46H11L5 56Z" fill="#323C46"/>
<path d="M20.9729 53.0004C20.7138 53.0082 20.4678 53.1166 20.2871 53.3027L16.0047 57.5896L13.7173 55.2999C13.6254 55.204 13.5153 55.1275 13.3935 55.0748C13.2716 55.0221 13.1405 54.9943 13.0078 54.9929C12.8751 54.9916 12.7434 55.0167 12.6206 55.067C12.4977 55.1172 12.3861 55.1914 12.2922 55.2854C12.1984 55.3793 12.1242 55.4911 12.074 55.6141C12.0239 55.7371 11.9987 55.8688 12.0001 56.0017C12.0014 56.1345 12.0292 56.2658 12.0819 56.3877C12.1345 56.5097 12.211 56.6199 12.3067 56.7119L15.2994 59.7076C15.4864 59.8948 15.7401 60 16.0047 60C16.2692 60 16.5229 59.8948 16.71 59.7076L21.6977 54.7148C21.8419 54.5745 21.9403 54.3939 21.9802 54.1967C22.0201 53.9995 21.9995 53.7948 21.9211 53.6095C21.8428 53.4241 21.7103 53.2668 21.5411 53.1582C21.3719 53.0495 21.1739 52.9945 20.9729 53.0004Z" fill="#7AEBEA"/>
<path d="M34 52L37.5 58H44.5L48 52L44.5 46H37.5L34 52Z" fill="#323C46"/>
<path d="M43.3838 50.0002C43.2283 50.0047 43.0807 50.0666 42.9723 50.173L40.4028 52.6226L39.0304 51.3142C38.9752 51.2594 38.9092 51.2157 38.8361 51.1856C38.763 51.1555 38.6843 51.1396 38.6047 51.1388C38.5251 51.138 38.4461 51.1524 38.3723 51.1811C38.2986 51.2098 38.2316 51.2522 38.1753 51.3059C38.119 51.3596 38.0745 51.4235 38.0444 51.4937C38.0143 51.564 37.9992 51.6393 38 51.7152C38.0008 51.7912 38.0175 51.8662 38.0491 51.9358C38.0807 52.0055 38.1266 52.0685 38.184 52.1211L39.9796 53.8329C40.0919 53.9399 40.2441 54 40.4028 54C40.5615 54 40.7137 53.9399 40.826 53.8329L43.8186 50.9799C43.9051 50.8997 43.9642 50.7965 43.9881 50.6838C44.012 50.5711 43.9997 50.4541 43.9527 50.3483C43.9057 50.2424 43.8262 50.1525 43.7247 50.0904C43.6232 50.0283 43.5043 49.9969 43.3838 50.0002Z" fill="#7AEBEA"/>
<path d="M85 6L80 9.6L75 6V8.4L80 12L85 8.4V6Z" fill="white"/>
<path opacity="0.45" d="M5 101V93.4845C5 90.9586 5.41526 88.3292 6.24579 85.5963C7.11785 82.8219 8.36364 80.1718 9.98316 77.646C11.6027 75.0787 13.5544 72.8634 15.8384 71L22.3788 75.5342C20.4686 78.2671 18.9944 81.0828 17.9562 83.9814C16.9181 86.8385 16.399 89.9441 16.399 93.2981V101H5ZM24.6212 101V93.4845C24.6212 90.9586 25.0365 88.3292 25.867 85.5963C26.7391 82.8219 27.9848 80.1718 29.6044 77.646C31.2239 75.0787 33.1756 72.8634 35.4596 71L42 75.5342C40.0898 78.2671 38.6156 81.0828 37.5774 83.9814C36.5393 86.8385 36.0202 89.9441 36.0202 93.2981V101H24.6212Z" fill="url(#paint0_linear_2547_2)"/>
<path opacity="0.45" d="M47 87V82.9917C47 81.6446 47.2245 80.2422 47.6734 78.7847C48.1448 77.305 48.8182 75.8916 49.6936 74.5445C50.569 73.1753 51.624 71.9938 52.8586 71L56.3939 73.4182C55.3614 74.8758 54.5645 76.3775 54.0034 77.9234C53.4422 79.4472 53.1616 81.1035 53.1616 82.8923V87H47ZM57.6061 87V82.9917C57.6061 81.6446 57.8305 80.2422 58.2795 78.7847C58.7508 77.305 59.4242 75.8916 60.2997 74.5445C61.1751 73.1753 62.2301 71.9938 63.4646 71L67 73.4182C65.9675 74.8758 65.1706 76.3775 64.6094 77.9234C64.0483 79.4472 63.7677 81.1035 63.7677 82.8923V87H57.6061Z" fill="url(#paint1_linear_2547_2)"/>
<path d="M49.9927 27L50.7025 27.7098L40.803 37.6093L40.0932 36.8995L49.9927 27ZM40.8035 27.0556L50.703 36.9551L49.8995 37.7586L40 27.859L40.8035 27.0556Z" fill="#323C46"/>
<path d="M92.0006 46C88.6912 46 86 48.6919 86 52C86 55.3081 88.6912 58 92.0006 58C95.3087 58 98.0006 55.3081 98.0006 52C98.0006 48.6919 95.3087 46 92.0006 46ZM97.1181 52C97.1181 53.1706 96.7206 54.25 96.0581 55.1125C95.8706 54.9663 95.6712 54.5706 95.8587 54.1606C96.0481 53.7481 96.0975 52.7931 96.0538 52.4212C96.0125 52.05 95.8194 51.1556 95.295 51.1469C94.7712 51.1394 94.4119 50.9662 94.1006 50.345C93.455 49.0525 95.3125 48.8044 94.6669 48.0894C94.4862 47.8881 93.5525 48.9156 93.4156 47.5462C93.4069 47.4481 93.5 47.3012 93.6256 47.1487C95.6531 47.83 97.1181 49.7469 97.1181 52ZM91.2975 46.9331C91.175 47.1719 90.8519 47.2687 90.6556 47.4481C90.2281 47.835 90.0444 47.7812 89.8144 48.1525C89.5825 48.5237 88.835 49.0581 88.835 49.3269C88.835 49.5956 89.2125 49.9119 89.4012 49.8506C89.59 49.7881 90.0881 49.7919 90.3806 49.8944C90.6737 49.9981 92.8269 50.1019 92.1406 51.9219C91.9231 52.5006 90.97 52.4031 90.7162 53.3612C90.6781 53.5019 90.5462 54.1025 90.5381 54.2987C90.5225 54.6025 90.7531 55.7475 90.46 55.7475C90.1656 55.7475 89.3737 54.7231 89.3737 54.5375C89.3737 54.3519 89.1687 53.7013 89.1687 53.1438C89.1687 52.5869 88.22 52.5956 88.22 51.855C88.22 51.1875 88.7344 50.855 88.6187 50.5344C88.5056 50.2156 87.6019 50.205 87.225 50.1656C87.5545 49.313 88.1057 48.5639 88.8217 47.9956C89.5376 47.4273 90.3923 47.0605 91.2975 46.9331ZM90.3906 56.8563C90.6981 56.6938 90.7294 56.4838 91.0081 56.4731C91.3269 56.4587 91.5862 56.3488 91.9456 56.2694C92.2644 56.2 92.835 55.8763 93.3369 55.835C93.7606 55.8006 94.5962 55.8569 94.8212 56.2656C94.1761 56.6941 93.4418 56.9699 92.6741 57.0723C91.9064 57.1746 91.1255 57.1007 90.3906 56.8563Z" fill="white"/>
<path opacity="0.6" d="M53 48.5L54.5 51H57.5L59 48.5L57.5 46H54.5L53 48.5Z" fill="white"/>
<path opacity="0.25" d="M64 48.5L65.5 51H68.5L70 48.5L68.5 46H65.5L64 48.5Z" fill="white"/>
<path d="M7.14577 22L18.0145 11.1312V19.4344H21V6H7.5656V8.98543H15.8688L5 19.8542L7.14577 22Z" fill="#00B4C9"/>
<path d="M100 6L95 9.6L90 6V8.4L95 12L100 8.4V6Z" fill="#323C46"/>
<path d="M115 6L109 14L115 22H111L105 14L111 6H115Z" fill="white"/>
<path d="M213 6L207 14L213 22H209L203 14L209 6H213Z" fill="#323C46"/>
<mask id="mask0_2547_2" style="mask-type:luminance" maskUnits="userSpaceOnUse" x="75" y="27" width="10" height="8">
<path d="M85 27H75V35H85V27Z" fill="white"/>
</mask>
<g mask="url(#mask0_2547_2)">
<path d="M84.2321 27L78.0993 33.3978L75.7679 30.9657L75 31.7668L78.0993 35L85 27.8011L84.2321 27Z" fill="#00B4C9"/>
</g>
<path d="M75 48.5L76.5 51H79.5L81 48.5L79.5 46H76.5L75 48.5Z" fill="#00B4C9"/>
<path d="M90.8572 27L90 27.8571L95.1429 33L90 38.1429L90.8571 39L96 33.8571L101.143 39L102 38.1429L96.8571 33L102 27.8571L101.143 27L96 32.1428L90.8572 27Z" fill="#323C46"/>
<path d="M108 27L107 28L113 34L107 40L108 41L114 35L120 41L121 40L115 34L121 28L120 27L114 33L108 27Z" fill="#323C46"/>
<path d="M190.875 7.875C187.43 7.875 184.625 10.6802 184.625 14.125C184.625 15.6216 185.15 16.9937 186.031 18.0703L181.051 23.0508L181.949 23.9492L186.93 18.9688C188.006 19.8501 189.378 20.375 190.875 20.375C194.32 20.375 197.125 17.5698 197.125 14.125C197.125 10.6802 194.32 7.875 190.875 7.875ZM190.875 9.125C193.644 9.125 195.875 11.3564 195.875 14.125C195.875 16.8936 193.644 19.125 190.875 19.125C188.106 19.125 185.875 16.8936 185.875 14.125C185.875 11.3564 188.106 9.125 190.875 9.125Z" fill="#323C46"/>
<path opacity="0.25" d="M53 57.5L54.5 60H57.5L59 57.5L57.5 55H54.5L53 57.5Z" fill="#323C46"/>
<path d="M168 6.5H156C154.067 6.5 152.5 8.067 152.5 10V22C152.5 23.933 154.067 25.5 156 25.5H168C169.933 25.5 171.5 23.933 171.5 22V10C171.5 8.067 169.933 6.5 168 6.5Z" stroke="#323C46" stroke-opacity="0.5"/>
<path d="M141 6H129C126.791 6 125 7.79086 125 10V22C125 24.2091 126.791 26 129 26H141C143.209 26 145 24.2091 145 22V10C145 7.79086 143.209 6 141 6Z" fill="#323C46"/>
<path d="M141 6.5H129C127.067 6.5 125.5 8.067 125.5 10V22C125.5 23.933 127.067 25.5 129 25.5H141C142.933 25.5 144.5 23.933 144.5 22V10C144.5 8.067 142.933 6.5 141 6.5Z" stroke="white" stroke-opacity="0.15"/>
<path d="M139.232 12L133.099 18.3978L130.768 15.9657L130 16.7668L133.099 20L140 12.8011L139.232 12Z" fill="#00B4C9"/>
<path opacity="0.65" d="M5 136V128.484C5 125.959 5.41526 123.329 6.24579 120.596C7.11785 117.822 8.36364 115.172 9.98316 112.646C11.6027 110.079 13.5544 107.863 15.8384 106L22.3788 110.534C20.4686 113.267 18.9944 116.083 17.9562 118.981C16.9181 121.839 16.399 124.944 16.399 128.298V136H5ZM24.6212 136V128.484C24.6212 125.959 25.0365 123.329 25.867 120.596C26.7391 117.822 27.9848 115.172 29.6044 112.646C31.2239 110.079 33.1756 107.863 35.4596 106L42 110.534C40.0898 113.267 38.6156 116.083 37.5774 118.981C36.5393 121.839 36.0202 124.944 36.0202 128.298V136H24.6212Z" fill="url(#paint2_linear_2547_2)"/>
<path d="M223.987 21.8326V10.3045L219.583 14.7079L218 13.1247L225.125 6L232.249 13.1247L230.666 14.7079L226.263 10.3045V21.8326H223.987Z" fill="#323C46"/>
<g opacity="0.5">
<path d="M76.3478 87H72V73.3636H76.3478V87ZM74.1748 71.5455C72.9722 71.5455 72 70.5264 72 69.2718C72 68.0173 72.9739 67 74.1748 67C75.373 67 76.3478 68.0191 76.3478 69.2718C76.3478 70.5264 75.373 71.5455 74.1748 71.5455ZM92 87H87.82V80.3636C87.82 78.7809 87.7913 76.7455 85.647 76.7455C83.4704 76.7455 83.1357 78.4691 83.1357 80.2491V87H78.9565V73.3536H82.9687V75.2182H83.0252C83.5835 74.1455 84.9478 73.0145 86.9826 73.0145C91.2174 73.0145 92 75.8409 92 79.5155V87Z" fill="white" fill-opacity="0.65"/>
</g>
<path opacity="0.5" d="M112.716 67C111.618 66.9999 110.52 67.4183 109.684 68.254L107.302 70.6355C106.115 71.8225 105.776 73.5365 106.275 75.0301L107.986 73.3194C108.057 72.8302 108.274 72.3584 108.649 71.9826L111.031 69.6011C111.495 69.1371 112.106 68.9043 112.716 68.9043C113.325 68.9043 113.935 69.1367 114.399 69.6011C115.328 70.5298 115.328 72.0403 114.399 72.9686L112.018 75.3502C111.642 75.726 111.171 75.9415 110.681 76.0134L108.969 77.7252C109.411 77.8728 109.872 77.9512 110.333 77.9512C111.431 77.9512 112.529 77.5331 113.365 76.6972L115.746 74.3157C117.418 72.6443 117.418 69.9254 115.746 68.254C114.911 67.4186 113.813 67.0001 112.716 67ZM109.839 73.1808C109.592 73.1881 109.357 73.2916 109.184 73.4691L103.469 79.1848C103.377 79.2725 103.304 79.3777 103.254 79.494C103.204 79.6103 103.177 79.7356 103.176 79.8623C103.175 79.989 103.199 80.1147 103.246 80.2321C103.294 80.3494 103.365 80.456 103.455 80.5456C103.544 80.6353 103.651 80.7061 103.768 80.754C103.886 80.8019 104.011 80.8259 104.138 80.8246C104.265 80.8233 104.39 80.7968 104.506 80.7465C104.623 80.6962 104.728 80.6232 104.816 80.5318L110.531 74.8162C110.669 74.6824 110.763 74.5101 110.801 74.3219C110.839 74.1338 110.819 73.9385 110.745 73.7617C110.67 73.5849 110.543 73.4349 110.382 73.3312C110.22 73.2275 110.031 73.1751 109.839 73.1808ZM103.88 76.059C102.712 75.9996 101.526 76.4126 100.635 77.3028L98.2535 79.6843C96.5822 81.3557 96.5822 84.0756 98.2535 85.7469C99.0894 86.5824 100.187 87 101.284 87C102.382 87 103.479 86.5819 104.315 85.746L106.697 83.3645C107.884 82.1775 108.224 80.4635 107.725 78.9699L106.013 80.6816C105.941 81.1707 105.725 81.6426 105.35 82.0184L102.968 84.3999C102.04 85.3287 100.529 85.3287 99.6005 84.3999C98.6722 83.4711 98.6722 81.9606 99.6005 81.0323L101.982 78.6508C102.358 78.275 102.83 78.0585 103.319 77.9866L105.03 76.2758C104.656 76.151 104.269 76.0788 103.88 76.059Z" fill="white" fill-opacity="0.65"/>
<path opacity="0.5" d="M122.051 67L130.159 78.0312L122 87H123.836L130.98 79.1477L136.751 87H143L134.436 75.3483L142.03 67H140.194L133.615 74.2318L128.3 67H122.051ZM124.752 68.3763H127.622L140.299 85.6235H137.428L124.752 68.3763Z" fill="white" fill-opacity="0.65"/>
<path opacity="0.5" d="M158 67C152.477 67 148 71.5006 148 77.0515C148 82.0907 151.693 86.252 156.505 86.9791V79.7152H154.031V77.0733H156.505V75.3151C156.505 72.4044 157.916 71.127 160.323 71.127C161.475 71.127 162.085 71.2133 162.373 71.2518V73.5578H160.732C159.71 73.5578 159.353 74.5319 159.353 75.6292V77.0733H162.347L161.942 79.7152H159.353V87C164.234 86.3349 168 82.1401 168 77.0515C168 71.5006 163.522 67 158 67Z" fill="white" fill-opacity="0.65"/>
<path d="M76.3478 139H72V125.364H76.3478V139ZM74.1748 123.546C72.9722 123.546 72 122.526 72 121.272C72 120.017 72.9739 119 74.1748 119C75.373 119 76.3478 120.019 76.3478 121.272C76.3478 122.526 75.373 123.546 74.1748 123.546ZM92 139H87.82V132.364C87.82 130.781 87.7913 128.745 85.647 128.745C83.4704 128.745 83.1357 130.469 83.1357 132.249V139H78.9565V125.354H82.9687V127.218H83.0252C83.5835 126.146 84.9478 125.015 86.9826 125.015C91.2174 125.015 92 127.841 92 131.516V139Z" fill="#323C46" fill-opacity="0.5"/>
<path d="M112.716 119C111.618 119 110.52 119.418 109.684 120.254L107.302 122.635C106.115 123.822 105.776 125.536 106.275 127.03L107.986 125.319C108.057 124.83 108.274 124.358 108.649 123.983L111.031 121.601C111.495 121.137 112.106 120.904 112.716 120.904C113.325 120.904 113.935 121.137 114.399 121.601C115.328 122.53 115.328 124.04 114.399 124.969L112.018 127.35C111.642 127.726 111.171 127.941 110.681 128.013L108.969 129.725C109.411 129.873 109.872 129.951 110.333 129.951C111.431 129.951 112.529 129.533 113.365 128.697L115.746 126.316C117.418 124.644 117.418 121.925 115.746 120.254C114.911 119.419 113.813 119 112.716 119ZM109.839 125.181C109.592 125.188 109.357 125.292 109.184 125.469L103.469 131.185C103.377 131.272 103.304 131.378 103.254 131.494C103.204 131.61 103.177 131.736 103.176 131.862C103.175 131.989 103.199 132.115 103.246 132.232C103.294 132.349 103.365 132.456 103.455 132.546C103.544 132.635 103.651 132.706 103.768 132.754C103.886 132.802 104.011 132.826 104.138 132.825C104.265 132.823 104.39 132.797 104.506 132.746C104.623 132.696 104.728 132.623 104.816 132.532L110.531 126.816C110.669 126.682 110.763 126.51 110.801 126.322C110.839 126.134 110.819 125.939 110.745 125.762C110.67 125.585 110.543 125.435 110.382 125.331C110.22 125.227 110.031 125.175 109.839 125.181ZM103.88 128.059C102.712 128 101.526 128.413 100.635 129.303L98.2535 131.684C96.5822 133.356 96.5822 136.076 98.2535 137.747C99.0894 138.582 100.187 139 101.284 139C102.382 139 103.479 138.582 104.315 137.746L106.697 135.365C107.884 134.178 108.224 132.464 107.725 130.97L106.013 132.682C105.941 133.171 105.725 133.643 105.35 134.018L102.968 136.4C102.04 137.329 100.529 137.329 99.6005 136.4C98.6722 135.471 98.6722 133.961 99.6005 133.032L101.982 130.651C102.358 130.275 102.83 130.059 103.319 129.987L105.03 128.276C104.656 128.151 104.269 128.079 103.88 128.059Z" fill="#323C46" fill-opacity="0.5"/>
<path d="M122.051 119L130.159 130.031L122 139H123.836L130.98 131.148L136.751 139H143L134.436 127.348L142.03 119H140.194L133.615 126.232L128.3 119H122.051ZM124.752 120.376H127.622L140.299 137.623H137.428L124.752 120.376Z" fill="#323C46" fill-opacity="0.5"/>
<path d="M158 119C152.477 119 148 123.501 148 129.051C148 134.091 151.693 138.252 156.505 138.979V131.715H154.031V129.073H156.505V127.315C156.505 124.404 157.916 123.127 160.323 123.127C161.475 123.127 162.085 123.213 162.373 123.252V125.558H160.732C159.71 125.558 159.353 126.532 159.353 127.629V129.073H162.347L161.942 131.715H159.353V139C164.234 138.335 168 134.14 168 129.051C168 123.501 163.522 119 158 119Z" fill="#323C46" fill-opacity="0.5"/>
<path d="M76.3478 114H72V100.364H76.3478V114ZM74.1748 98.5455C72.9722 98.5455 72 97.5264 72 96.2718C72 95.0173 72.9739 94 74.1748 94C75.373 94 76.3478 95.0191 76.3478 96.2718C76.3478 97.5264 75.373 98.5455 74.1748 98.5455ZM92 114H87.82V107.364C87.82 105.781 87.7913 103.745 85.647 103.745C83.4704 103.745 83.1357 105.469 83.1357 107.249V114H78.9565V100.354H82.9687V102.218H83.0252C83.5835 101.145 84.9478 100.015 86.9826 100.015C91.2174 100.015 92 102.841 92 106.515V114Z" fill="white"/>
<path d="M112.716 94C111.618 93.9999 110.52 94.4183 109.684 95.254L107.302 97.6355C106.115 98.8225 105.776 100.536 106.275 102.03L107.986 100.319C108.057 99.8302 108.274 99.3584 108.649 98.9826L111.031 96.6011C111.495 96.1371 112.106 95.9043 112.716 95.9043C113.325 95.9043 113.935 96.1367 114.399 96.6011C115.328 97.5298 115.328 99.0403 114.399 99.9686L112.018 102.35C111.642 102.726 111.171 102.942 110.681 103.013L108.969 104.725C109.411 104.873 109.872 104.951 110.333 104.951C111.431 104.951 112.529 104.533 113.365 103.697L115.746 101.316C117.418 99.6443 117.418 96.9254 115.746 95.254C114.911 94.4186 113.813 94.0001 112.716 94ZM109.839 100.181C109.592 100.188 109.357 100.292 109.184 100.469L103.469 106.185C103.377 106.273 103.304 106.378 103.254 106.494C103.204 106.61 103.177 106.736 103.176 106.862C103.175 106.989 103.199 107.115 103.246 107.232C103.294 107.349 103.365 107.456 103.455 107.546C103.544 107.635 103.651 107.706 103.768 107.754C103.886 107.802 104.011 107.826 104.138 107.825C104.265 107.823 104.39 107.797 104.506 107.746C104.623 107.696 104.728 107.623 104.816 107.532L110.531 101.816C110.669 101.682 110.763 101.51 110.801 101.322C110.839 101.134 110.819 100.939 110.745 100.762C110.67 100.585 110.543 100.435 110.382 100.331C110.22 100.228 110.031 100.175 109.839 100.181ZM103.88 103.059C102.712 103 101.526 103.413 100.635 104.303L98.2535 106.684C96.5822 108.356 96.5822 111.076 98.2535 112.747C99.0894 113.582 100.187 114 101.284 114C102.382 114 103.479 113.582 104.315 112.746L106.697 110.364C107.884 109.178 108.224 107.464 107.725 105.97L106.013 107.682C105.941 108.171 105.725 108.643 105.35 109.018L102.968 111.4C102.04 112.329 100.529 112.329 99.6005 111.4C98.6722 110.471 98.6722 108.961 99.6005 108.032L101.982 105.651C102.358 105.275 102.83 105.058 103.319 104.987L105.03 103.276C104.656 103.151 104.269 103.079 103.88 103.059Z" fill="white"/>
<path d="M122.051 94L130.159 105.031L122 114H123.836L130.98 106.148L136.751 114H143L134.436 102.348L142.03 94H140.194L133.615 101.232L128.3 94H122.051ZM124.752 95.3763H127.622L140.299 112.623H137.428L124.752 95.3763Z" fill="white"/>
<path d="M158 94C152.478 94 148 98.5006 148 104.052C148 109.091 151.693 113.252 156.505 113.979V106.715H154.031V104.073H156.505V102.315C156.505 99.4044 157.916 98.127 160.323 98.127C161.475 98.127 162.085 98.2133 162.373 98.2518V100.558H160.732C159.71 100.558 159.353 101.532 159.353 102.629V104.073H162.348L161.942 106.715H159.353V114C164.234 113.335 168 109.14 168 104.052C168 98.5006 163.523 94 158 94Z" fill="white"/>
<path d="M183.018 87.0315L174.773 78.7863C173.795 77.8084 173.795 76.223 174.773 75.2452L183.018 67V87.0315Z" fill="black"/>
<path d="M198.029 87.0315L189.784 78.7863C188.806 77.8084 188.806 76.223 189.784 75.2452L198.029 67V87.0315Z" fill="#00B4C9" fill-opacity="0.85"/>
<path opacity="0.9" d="M127.073 35L132.507 29.5656V33.7172H134V27H127.283V28.4927H131.434L126 33.9271L127.073 35Z" fill="#00B4C9"/>
<path d="M45 225C67.0914 225 85 207.091 85 185C85 162.909 67.0914 145 45 145C22.9086 145 5 162.909 5 185C5 207.091 22.9086 225 45 225Z" fill="#323C46" fill-opacity="0.75"/>
<path d="M35 168.996V200.996L62 184.996L35 168.996Z" fill="#00B4C9"/>
<path d="M133 226C155.091 226 173 208.091 173 186C173 163.909 155.091 146 133 146C110.909 146 93 163.909 93 186C93 208.091 110.909 226 133 226Z" fill="#323C46" fill-opacity="0.75"/>
<path d="M123 169.996V201.996L150 185.996L123 169.996Z" fill="white"/>
<path fill-rule="evenodd" clip-rule="evenodd" d="M148 39V27H146.941V32.719L139 27.0547V38.9549L146.941 33.2906V39H148ZM140.059 36.8729V29.1368L145.482 33.0048L140.059 36.8729Z" fill="#00B4C9"/>
<path d="M109.001 46C105.691 46 103 48.6919 103 52C103 55.3081 105.691 58 109.001 58C112.309 58 115.001 55.3081 115.001 52C115.001 48.6919 112.309 46 109.001 46ZM114.118 52C114.118 53.1706 113.721 54.25 113.058 55.1125C112.871 54.9663 112.671 54.5706 112.859 54.1606C113.048 53.7481 113.097 52.7931 113.054 52.4212C113.012 52.05 112.819 51.1556 112.295 51.1469C111.771 51.1394 111.412 50.9662 111.101 50.345C110.455 49.0525 112.312 48.8044 111.667 48.0894C111.486 47.8881 110.552 48.9156 110.416 47.5462C110.407 47.4481 110.5 47.3012 110.626 47.1487C112.653 47.83 114.118 49.7469 114.118 52ZM108.297 46.9331C108.175 47.1719 107.852 47.2687 107.656 47.4481C107.228 47.835 107.044 47.7812 106.814 48.1525C106.582 48.5237 105.835 49.0581 105.835 49.3269C105.835 49.5956 106.212 49.9119 106.401 49.8506C106.59 49.7881 107.088 49.7919 107.381 49.8944C107.674 49.9981 109.827 50.1019 109.141 51.9219C108.923 52.5006 107.97 52.4031 107.716 53.3612C107.678 53.5019 107.546 54.1025 107.538 54.2987C107.522 54.6025 107.753 55.7475 107.46 55.7475C107.166 55.7475 106.374 54.7231 106.374 54.5375C106.374 54.3519 106.169 53.7013 106.169 53.1438C106.169 52.5869 105.22 52.5956 105.22 51.855C105.22 51.1875 105.734 50.855 105.619 50.5344C105.506 50.2156 104.602 50.205 104.225 50.1656C104.555 49.313 105.106 48.5639 105.822 47.9956C106.538 47.4273 107.392 47.0605 108.297 46.9331ZM107.391 56.8563C107.698 56.6938 107.729 56.4838 108.008 56.4731C108.327 56.4587 108.586 56.3488 108.946 56.2694C109.264 56.2 109.835 55.8763 110.337 55.835C110.761 55.8006 111.596 55.8569 111.821 56.2656C111.176 56.6941 110.442 56.9699 109.674 57.0723C108.906 57.1746 108.125 57.1007 107.391 56.8563Z" fill="#323C46"/>
<path d="M127.001 46C123.14 46 120 49.1405 120 53C120 56.8595 123.14 60 127.001 60C130.86 60 134.001 56.8595 134.001 53C134.001 49.1405 130.86 46 127.001 46ZM132.971 53C132.971 54.3657 132.507 55.625 131.734 56.6312C131.516 56.4606 131.283 55.9991 131.502 55.5207C131.723 55.0395 131.78 53.9253 131.729 53.4915C131.681 53.0583 131.456 52.0149 130.844 52.0047C130.233 51.9959 129.814 51.794 129.451 51.0692C128.698 49.5612 130.865 49.2718 130.111 48.4376C129.901 48.2028 128.811 49.4016 128.652 47.804C128.641 47.6895 128.75 47.5181 128.897 47.3402C131.262 48.135 132.971 50.3714 132.971 53ZM126.18 47.0886C126.037 47.3672 125.661 47.4802 125.432 47.6895C124.933 48.1408 124.718 48.0781 124.45 48.5113C124.18 48.9444 123.307 49.5678 123.307 49.8814C123.307 50.1949 123.748 50.5639 123.968 50.4924C124.188 50.4195 124.769 50.4238 125.111 50.5434C125.453 50.6645 127.965 50.7855 127.164 52.9089C126.91 53.5841 125.798 53.4703 125.502 54.5881C125.458 54.7522 125.304 55.4529 125.294 55.6819C125.276 56.0363 125.545 57.3721 125.203 57.3721C124.86 57.3721 123.936 56.177 123.936 55.9604C123.936 55.7439 123.697 54.9848 123.697 54.3344C123.697 53.6847 122.59 53.6949 122.59 52.8308C122.59 52.0521 123.19 51.6642 123.055 51.2901C122.923 50.9182 121.869 50.9058 121.429 50.8599C121.814 49.8652 122.457 48.9912 123.292 48.3282C124.127 47.6652 125.124 47.2373 126.18 47.0886ZM125.122 58.6656C125.481 58.476 125.518 58.231 125.843 58.2186C126.215 58.2019 126.517 58.0735 126.937 57.9809C127.308 57.9 127.974 57.5223 128.56 57.4742C129.054 57.4341 130.029 57.4997 130.292 57.9766C129.539 58.4764 128.682 58.7982 127.786 58.9176C126.891 59.037 125.98 58.9508 125.122 58.6656Z" fill="white"/>
<defs>
<linearGradient id="paint0_linear_2547_2" x1="5" y1="71" x2="42.5134" y2="100.344" gradientUnits="userSpaceOnUse">
<stop stop-color="#00B4C9"/>
<stop offset="0.664615" stop-color="#A8FFD4"/>
</linearGradient>
<linearGradient id="paint1_linear_2547_2" x1="47" y1="71" x2="67.0702" y2="86.9114" gradientUnits="userSpaceOnUse">
<stop stop-color="#00B4C9"/>
<stop offset="0.664615" stop-color="#A8FFD4"/>
</linearGradient>
<linearGradient id="paint2_linear_2547_2" x1="5" y1="106" x2="42.5134" y2="135.344" gradientUnits="userSpaceOnUse">
<stop stop-color="#00B4C9"/>
<stop offset="0.664615" stop-color="#A8FFD4"/>
</linearGradient>
</defs>
</svg>
